<svg width="80" height="81" viewBox="0 0 80 81" fill="none" xmlns="http://www.w3.org/2000/svg">
<path d="M40 21.8637C36.0232 21.8684 32.2106 23.4502 29.3986 26.2623C26.5866 29.0743 25.0047 32.8869 25 36.8637C24.9953 40.1135 26.0568 43.2752 28.0218 45.8637C28.0218 45.8637 28.4309 46.4023 28.4977 46.48L40 60.0455L51.5077 46.4732C51.5677 46.4009 51.9782 45.8637 51.9782 45.8637L51.9795 45.8596C53.9436 43.2722 55.0046 40.112 55 36.8637C54.9953 32.8869 53.4134 29.0743 50.6014 26.2623C47.7894 23.4502 43.9768 21.8684 40 21.8637ZM40 42.3182C38.9212 42.3182 37.8666 41.9983 36.9696 41.3989C36.0726 40.7996 35.3735 39.9477 34.9607 38.951C34.5478 37.9543 34.4398 36.8576 34.6503 35.7995C34.8607 34.7415 35.3802 33.7696 36.1431 33.0067C36.9059 32.2439 37.8778 31.7244 38.9359 31.5139C39.9939 31.3035 41.0907 31.4115 42.0874 31.8243C43.084 32.2372 43.9359 32.9363 44.5353 33.8333C45.1346 34.7303 45.4545 35.7849 45.4545 36.8637C45.4527 38.3097 44.8775 39.6961 43.8549 40.7186C42.8324 41.7411 41.4461 42.3164 40 42.3182Z" fill="#FF0099"/>
</svg>
