<svg width="70" height="71" viewBox="0 0 70 71" fill="none" xmlns="http://www.w3.org/2000/svg">
<path d="M49.9825 43.6165C49.7151 45.6491 48.7169 47.5148 47.1743 48.8652C45.6318 50.2156 43.6505 50.9583 41.6004 50.9547C29.6902 50.9547 20 41.2645 20 29.3543C19.9963 27.3042 20.7391 25.3228 22.0894 23.7803C23.4398 22.2378 25.3056 21.2396 27.3381 20.9721C27.8521 20.9094 28.3726 21.0145 28.8219 21.2719C29.2713 21.5293 29.6253 21.925 29.8312 22.4002L32.9992 29.4728V29.4908C33.1569 29.8545 33.222 30.2515 33.1887 30.6465C33.1555 31.0415 33.0249 31.4221 32.8087 31.7543C32.7817 31.7948 32.7532 31.8323 32.7232 31.8698L29.6002 35.5719C30.7237 37.8549 33.1117 40.222 35.4248 41.3485L39.0758 38.2419C39.1117 38.2118 39.1493 38.1837 39.1883 38.1579C39.5203 37.9365 39.9022 37.8014 40.2995 37.7647C40.6968 37.7281 41.097 37.791 41.4639 37.9479L41.4834 37.9569L48.55 41.1235C49.026 41.3286 49.4227 41.6824 49.6809 42.1317C49.9391 42.5811 50.0449 43.102 49.9825 43.6165Z" fill="#FF0099"/>
</svg>
