<svg width="71" height="68" viewBox="0 0 71 68" fill="none" xmlns="http://www.w3.org/2000/svg">
<path d="M20.3636 25.8939C20.3636 25.0099 20.7148 24.162 21.34 23.5369C21.9651 22.9118 22.8129 22.5606 23.697 22.5606H47.0303C47.9144 22.5606 48.7622 22.9118 49.3873 23.5369C50.0125 24.162 50.3636 25.0099 50.3636 25.8939V42.5606C50.3636 43.4447 50.0125 44.2925 49.3873 44.9176C48.7622 45.5427 47.9144 45.8939 47.0303 45.8939H23.697C22.8129 45.8939 21.9651 45.5427 21.34 44.9176C20.7148 44.2925 20.3636 43.4447 20.3636 42.5606V25.8939Z" stroke="#FF0099" stroke-width="3.39394" stroke-linecap="round" stroke-linejoin="round"/>
<path d="M20.3636 25.8939L35.3636 35.8939L50.3636 25.8939" stroke="#FF0099" stroke-width="3.39394" stroke-linecap="round" stroke-linejoin="round"/>
</svg>
